<svg viewBox="0 0 64 64" xmlns="http://www.w3.org/2000/svg"><path d="m62 32c0-11.6-13-25-29-25s-29 13.4-29 25 13 21 29 21 29-9.4 29-21z" fill="#9af43b" stroke="#54596e" stroke-linecap="round" stroke-linejoin="round" stroke-width="2"/><path d="m33 34c-10.64 0-20 3.11-25.61 7.86 4.88 6.63 14.51 11.14 25.61 11.14s20.73-4.51 25.61-11.14c-5.61-4.75-14.97-7.86-25.61-7.86z" fill="#54596e" opacity=".15"/><path d="m16 51.19c0 3.81 2.59 6.81 5.79 6.81h22.42c3.2 0 5.79-3 5.79-6.81v-9.88a41.78 41.78 0 0 0 -17-3.31 41.78 41.78 0 0 0 -17 3.31z" fill="#fff35f" stroke="#54596e" stroke-linecap="round" stroke-linejoin="round" stroke-width="2"/><rect fill="#54596e" height="9" rx="1.5" width="3" x="26" y="42"/><rect fill="#54596e" height="9" rx="1.5" transform="matrix(-1 0 0 -1 77 93)" width="3" x="37" y="42"/><g fill="#fff" stroke="#54596e" stroke-linecap="round" stroke-linejoin="round" stroke-width="2"><circle cx="33" cy="20" r="9"/><path d="m8.83 19.15a21.81 21.81 0 0 0 -4.83 12.85 15.58 15.58 0 0 0 .28 2.9 9 9 0 0 0 4.55-15.75z"/><path d="m57.17 19.15a21.81 21.81 0 0 1 4.83 12.85 15.58 15.58 0 0 1 -.28 2.9 9 9 0 0 1 -4.55-15.75z"/></g></svg>